<?xml version="1.0" standalone="no"?>
<!DOCTYPE svg PUBLIC "-//W3C//DTD SVG 20010904//EN"
 "http://www.w3.org/TR/2001/REC-SVG-20010904/DTD/svg10.dtd">
<svg version="1.0" xmlns="http://www.w3.org/2000/svg"
 width="512.000000pt" height="512.000000pt" viewBox="0 0 512.000000 512.000000"
 preserveAspectRatio="xMidYMid meet">

<g transform="translate(0.000000,512.000000) scale(0.100000,-0.100000)"
fill="#ffffff" stroke="none">
<path d="M222 4645 c-97 -30 -172 -111 -192 -208 -7 -36 -10 -621 -8 -1907 l3
-1855 21 -46 c27 -58 85 -116 143 -143 l46 -21 2325 0 2325 0 46 21 c58 27
116 85 143 143 l21 46 0 1885 0 1885 -21 46 c-27 58 -85 116 -143 143 l-46 21
-2310 2 c-1919 1 -2317 -1 -2353 -12z m4655 -165 c61 -37 64 -51 61 -342 l-3
-263 -2375 0 -2375 0 -3 263 c-3 291 0 305 61 342 31 20 68 20 2317 20 2249 0
2286 0 2317 -20z m61 -2263 c2 -1655 7 -1536 -61 -1577 -31 -20 -68 -20 -2315
-20 -2523 0 -2321 -5 -2362 63 -20 31 -20 62 -20 1528 0 823 3 1499 7 1502 3
4 1073 6 2377 5 l2371 -3 3 -1498z"/>
<path d="M650 4273 c-38 -35 -51 -78 -36 -123 13 -40 66 -80 106 -80 40 0 93
40 106 80 24 72 -31 150 -106 150 -29 0 -48 -7 -70 -27z"/>
<path d="M1114 4281 c-60 -37 -69 -123 -18 -175 78 -78 206 -12 191 98 -11 82
-100 122 -173 77z"/>
<path d="M1554 4266 c-29 -29 -34 -41 -34 -79 0 -75 61 -127 133 -113 46 9 97
67 97 111 0 32 -33 86 -61 100 -49 26 -97 19 -135 -19z"/>
<path d="M770 2580 c-12 -12 -20 -33 -20 -52 0 -18 34 -141 75 -273 42 -132
94 -298 116 -368 38 -122 42 -129 74 -143 36 -15 71 -8 92 17 6 8 44 118 83
244 40 127 75 234 78 239 2 5 37 -94 77 -220 39 -126 77 -239 84 -252 18 -34
55 -45 96 -28 32 14 35 20 84 173 188 593 192 607 180 636 -21 51 -90 65 -126
25 -12 -14 -50 -118 -92 -252 -39 -127 -73 -232 -76 -234 -2 -2 -29 76 -60
175 -88 280 -94 295 -111 315 -22 23 -75 24 -103 1 -16 -13 -42 -83 -93 -248
-39 -126 -74 -233 -78 -238 -3 -4 -39 97 -79 225 -44 141 -81 242 -94 256 -26
28 -79 30 -107 2z"/>
<path d="M2067 2588 c-42 -33 -40 -55 34 -290 177 -563 167 -537 199 -553 33
-17 71 -12 93 13 8 10 48 122 88 250 40 127 76 232 79 232 3 0 39 -105 79
-232 40 -128 78 -239 84 -247 21 -25 56 -32 92 -17 32 14 35 20 84 173 185
584 190 602 179 633 -18 54 -88 69 -125 28 -12 -14 -50 -117 -92 -253 -40
-126 -74 -231 -76 -234 -6 -5 0 -20 -84 249 -75 237 -87 260 -141 260 -54 0
-66 -23 -141 -260 -84 -269 -78 -254 -84 -249 -2 3 -36 108 -76 234 -42 136
-80 239 -92 253 -23 25 -73 30 -100 10z"/>
<path d="M3359 2590 c-9 -5 -22 -22 -28 -37 -12 -30 -9 -40 175 -621 54 -169
56 -174 89 -188 36 -15 71 -8 92 17 6 8 44 121 85 253 42 131 78 235 81 230 2
-5 37 -112 77 -239 39 -126 77 -236 83 -244 21 -25 56 -32 92 -17 32 14 36 21
75 148 23 73 75 237 115 365 90 282 90 288 55 323 -28 28 -81 26 -107 -2 -12
-14 -50 -117 -94 -256 -40 -128 -76 -229 -79 -225 -4 5 -39 112 -78 238 -75
242 -88 265 -141 265 -43 0 -68 -26 -90 -92 -11 -35 -45 -143 -76 -241 -31
-99 -58 -177 -60 -175 -3 2 -37 107 -76 234 -42 134 -80 238 -92 252 -22 23
-69 29 -98 12z"/>
</g>
</svg>
