<?xml version="1.0" standalone="no"?>
<!DOCTYPE svg PUBLIC "-//W3C//DTD SVG 20010904//EN"
 "http://www.w3.org/TR/2001/REC-SVG-20010904/DTD/svg10.dtd">
<svg version="1.0" xmlns="http://www.w3.org/2000/svg"
 width="2048.000000pt" height="2048.000000pt" viewBox="0 0 2048.000000 1.000000"
 preserveAspectRatio="xMidYMid meet">

<g transform="translate(0.000000,1024.000000) scale(0.200000,-0.200000)"
fill="#ffffff" stroke="none">
<path d="M4790 9099 c-502 -44 -911 -142 -1335 -319 -199 -83 -244 -107 -254
-133 -11 -31 -2 -57 25 -69 20 -10 40 -4 128 35 481 216 991 347 1456 374 101
6 117 9 137 29 13 13 23 28 23 34 0 18 -48 60 -67 59 -10 -1 -61 -5 -113 -10z"/>
<path d="M5293 9089 c-21 -21 -16 -66 9 -83 12 -9 42 -16 66 -16 73 0 330 -29
486 -56 639 -108 1314 -401 1844 -802 308 -234 712 -631 728 -717 8 -47 -19
-99 -63 -120 -61 -29 -98 -10 -191 98 -198 229 -510 505 -762 672 -159 106
-173 112 -204 95 -25 -13 -38 -42 -30 -65 3 -7 69 -56 147 -108 267 -179 579
-453 771 -676 98 -114 141 -141 221 -141 134 0 225 95 225 231 -1 69 -30 118
-158 261 -213 237 -534 513 -817 702 -479 319 -1049 559 -1570 660 -320 62
-674 95 -702 65z"/>
<path d="M4867 8769 c-432 -24 -905 -138 -1332 -322 -174 -75 -201 -97 -171
-142 25 -38 48 -38 132 1 399 183 851 304 1279 344 155 14 528 15 675 1 476
-45 921 -166 1330 -360 75 -36 91 -38 113 -13 25 27 21 69 -7 87 -45 30 -348
155 -483 199 -377 124 -655 179 -1051 206 -170 11 -265 11 -485 -1z"/>
<path d="M2749 8413 c-229 -144 -476 -342 -713 -573 -169 -165 -299 -315 -321
-373 -24 -64 -16 -133 21 -194 56 -91 190 -131 282 -84 22 11 93 80 166 160
70 78 187 196 261 262 73 66 136 127 139 135 8 22 -11 62 -33 69 -11 3 -33 -1
-48 -9 -53 -28 -243 -206 -384 -361 -155 -169 -176 -182 -237 -151 -41 21 -62
53 -62 96 0 42 20 76 90 155 276 310 610 593 943 799 50 31 79 56 83 71 6 24
-10 65 -26 65 -4 0 -15 2 -22 5 -8 3 -70 -29 -139 -72z"/>
<path d="M4915 8253 c-349 -17 -804 -122 -1128 -259 -517 -219 -954 -530
-1301 -924 -122 -139 -146 -172 -146 -202 0 -52 68 -70 103 -27 181 227 401
443 627 613 510 384 1110 618 1740 676 181 17 505 15 665 -4 238 -28 493 -82
664 -141 41 -14 85 -25 97 -25 48 0 72 61 37 92 -26 23 -222 83 -402 123 -311
68 -629 95 -956 78z"/>
<path d="M3037 8194 c-174 -103 -287 -184 -293 -209 -7 -27 6 -49 38 -66 16
-9 41 4 141 69 67 44 148 95 179 115 65 41 82 75 53 107 -25 28 -51 24 -118
-16z"/>
<path d="M6530 7920 c-21 -21 -24 -37 -14 -64 3 -8 69 -47 146 -87 78 -39 173
-90 212 -114 94 -57 116 -60 140 -22 26 38 9 63 -73 114 -96 59 -358 193 -377
193 -8 0 -23 -9 -34 -20z"/>
<path d="M4811 7909 c-216 -20 -548 -95 -766 -173 -176 -63 -505 -227 -645
-321 -224 -151 -360 -265 -360 -302 0 -25 30 -53 56 -53 10 0 71 41 134 92
317 251 690 441 1076 547 553 152 1123 146 1690 -19 56 -17 114 -30 128 -30
46 0 63 68 23 95 -54 35 -369 115 -576 147 -154 23 -594 33 -760 17z"/>
<path d="M6385 7610 c-35 -39 -12 -68 100 -126 55 -29 108 -53 117 -53 10 -1
25 11 34 25 30 45 11 72 -91 126 -99 52 -133 58 -160 28z"/>
<path d="M7227 7492 c-26 -29 -21 -61 16 -92 17 -15 80 -69 139 -119 102 -88
255 -245 369 -380 70 -83 87 -94 119 -78 18 9 26 22 28 47 2 32 -8 47 -131
185 -198 223 -455 455 -504 455 -11 0 -27 -8 -36 -18z"/>
<path d="M6672 7474 c-14 -10 -22 -25 -22 -45 0 -25 9 -35 62 -69 33 -22 67
-40 74 -40 42 0 73 45 54 80 -10 19 -91 73 -126 84 -11 3 -29 -1 -42 -10z"/>
<path d="M4745 7250 c-469 -75 -857 -251 -1232 -557 -166 -136 -403 -396 -403
-443 0 -27 27 -50 60 -50 23 0 44 19 126 117 240 284 564 523 898 662 217 90
423 142 698 176 52 7 71 23 71 62 0 56 -38 62 -218 33z"/>
<path d="M5297 7255 c-20 -20 -22 -68 -3 -84 7 -6 62 -18 122 -26 61 -7 130
-19 154 -24 94 -22 140 -7 140 43 0 40 -30 54 -155 75 -198 33 -239 36 -258
16z"/>
<path d="M7036 7214 c-35 -35 -21 -59 98 -162 118 -103 292 -280 361 -367 51
-65 63 -75 95 -75 33 0 50 17 50 50 0 71 -496 570 -566 570 -12 0 -30 -7 -38
-16z"/>
<path d="M5946 7098 c-9 -12 -16 -30 -16 -39 0 -17 44 -59 61 -59 20 0 221
-96 309 -147 269 -158 502 -355 684 -580 47 -59 63 -73 86 -73 33 0 60 23 60
50 0 11 -30 57 -66 102 -245 306 -624 589 -984 738 -87 36 -114 37 -134 8z"/>
<path d="M2770 6883 c-94 -96 -158 -177 -166 -209 -12 -47 49 -83 87 -51 8 6
39 41 69 77 30 36 78 91 107 122 59 62 70 108 34 128 -37 19 -56 10 -131 -67z"/>
<path d="M4890 6930 c-187 -24 -439 -87 -598 -150 -266 -106 -561 -314 -767
-540 -149 -163 -172 -211 -121 -259 13 -12 95 -76 182 -141 110 -83 167 -120
186 -120 21 0 40 16 91 78 87 105 233 240 342 315 72 50 91 68 93 90 4 35 -13
57 -46 57 -70 0 -347 -226 -464 -379 l-26 -34 -126 97 c-104 80 -125 100 -117
114 17 31 165 186 246 259 182 163 374 281 604 370 280 108 619 158 906 134
552 -47 1028 -280 1377 -675 43 -48 78 -93 78 -100 -1 -6 -57 -53 -126 -105
-122 -92 -125 -94 -139 -74 -108 155 -350 351 -560 456 -246 122 -479 176
-770 179 -150 1 -167 -5 -167 -58 0 -46 23 -54 161 -54 471 -1 917 -200 1202
-538 100 -118 115 -132 143 -132 26 0 348 240 379 282 18 24 19 31 8 54 -35
77 -249 308 -387 416 -180 142 -440 285 -644 352 -111 36 -288 78 -405 96 -98
15 -445 21 -535 10z"/>
<path d="M4635 6436 c-44 -13 -101 -32 -127 -44 -41 -18 -48 -25 -48 -50 0
-16 9 -37 20 -47 19 -17 24 -17 147 20 71 21 134 42 141 48 18 14 15 54 -8 77
-24 24 -25 24 -125 -4z"/>
<path d="M4905 5860 c-170 -36 -306 -100 -456 -216 -73 -56 -153 -150 -169
-199 -20 -61 -9 -148 26 -197 58 -83 181 -121 271 -83 20 8 70 48 112 88 126
119 267 177 436 177 170 0 310 -58 434 -178 87 -84 120 -102 191 -102 128 0
223 95 224 225 0 80 -22 124 -107 207 -144 143 -338 243 -550 283 -110 21
-299 18 -412 -5z m445 -119 c154 -40 240 -82 359 -171 107 -81 151 -138 151
-196 0 -59 -38 -103 -97 -111 -40 -5 -43 -4 -116 65 -98 93 -176 142 -275 175
-146 48 -313 54 -454 17 -109 -30 -238 -109 -328 -201 -62 -64 -93 -74 -149
-45 -68 36 -77 126 -18 193 112 127 315 241 507 284 110 25 308 20 420 -10z"/>
<path d="M5060 5059 c-26 -12 -79 -55 -130 -107 -171 -175 -205 -317 -137
-587 l32 -130 65 12 c149 28 281 28 487 -3 40 -6 42 -5 48 22 4 16 17 67 30
114 47 167 41 278 -19 406 -56 118 -216 271 -301 288 -20 4 -45 -1 -75 -15z"/>
<path d="M4925 4155 c-384 -62 -702 -291 -877 -631 -157 -303 -190 -687 -92
-1053 57 -213 175 -445 322 -638 80 -105 259 -277 355 -342 98 -66 242 -135
327 -158 89 -24 240 -21 343 6 304 80 639 388 840 772 68 129 118 262 158 421
27 107 32 146 36 303 8 276 -27 458 -132 670 -165 336 -452 558 -830 642 -99
21 -338 26 -450 8z m310 -175 c445 -51 774 -343 886 -787 124 -492 -76 -1079
-496 -1453 -219 -196 -410 -267 -605 -226 -242 51 -520 288 -715 611 -230 382
-283 829 -143 1202 88 232 268 438 476 542 131 66 232 95 382 111 110 11 117
11 215 0z"/>
<path d="M4975 3880 c-188 -30 -361 -118 -508 -259 -368 -353 -380 -993 -31
-1523 121 -183 328 -375 480 -445 130 -59 224 -67 342 -27 182 61 364 215 544
461 95 130 179 322 225 513 34 143 42 368 19 492 -34 179 -88 307 -187 437
-126 168 -313 288 -519 335 -89 21 -282 29 -365 16z"/>
<path d="M4018 4135 c-330 -84 -641 -447 -793 -929 -45 -140 -56 -238 -30
-266 49 -54 192 16 366 179 96 89 146 153 210 272 63 117 70 124 130 144 44
15 51 22 96 98 85 146 225 301 345 385 54 37 56 40 40 55 -10 9 -44 28 -76 43
-73 33 -200 42 -288 19z"/>
<path d="M5990 4135 c-57 -16 -140 -60 -140 -74 0 -5 33 -34 74 -65 133 -102
252 -241 352 -414 14 -24 30 -36 59 -43 57 -15 67 -24 116 -119 102 -198 290
-388 464 -471 105 -50 145 -35 145 54 0 137 -135 485 -263 678 -188 283 -433
454 -667 465 -57 3 -103 -1 -140 -11z"/>
<path d="M4075 1882 c-142 -192 -195 -314 -195 -450 0 -133 46 -268 111 -327
71 -64 145 -44 241 63 54 60 87 115 129 219 20 51 44 102 53 114 15 22 12 26
-82 123 -54 56 -120 132 -147 170 -28 38 -59 79 -70 92 l-20 24 -20 -28z"/>
<path d="M6075 1817 c-33 -50 -104 -135 -159 -190 l-98 -99 25 -47 c13 -25 30
-64 37 -86 35 -114 136 -252 221 -304 44 -27 102 -27 140 0 92 65 146 310 104
472 -26 99 -120 263 -186 324 l-24 21 -60 -91z"/>
<path d="M5235 1229 c-38 -11 -156 -13 -218 -4 l-48 7 20 -51 c26 -69 67 -137
93 -156 37 -25 64 -18 102 26 32 38 95 174 85 183 -2 2 -17 -1 -34 -5z"/>
</g>
</svg>
